<?xml version="1.0" encoding="UTF-8"?>
<svg id="Layer_1" data-name="Layer 1" xmlns="http://www.w3.org/2000/svg" viewBox="0 0 1667.05 377.21">
    <defs>
        <style>
            .cls-1 {
            fill: #FFFFFF;
            }
        </style>
    </defs>
    <path class="cls-1" d="m295.29,94.73v82.3l-.4,6.1v.2c-.7,5.6-2.3,10.9-4.7,15.8-1.4,2.9-3.1,5.7-5.1,8.2-1.5,2-3.3,3.9-5.1,5.7-1.6,1.5-3.3,3-5.1,4.3-1.6,1.2-3.3,2.3-5.1,3.3-1.7.9-3.4,1.7-5.1,2.5-1.2.5-2.4.9-3.7,1.3l-1.4.5-5.1,1.7-5.1,1.7-5.1,1.7-5.1,1.7-10.2,3.4-.5.2v18.5l-.4.1-3.5,1.1-.8.2-2.7.9-2.4.8-1.1.3-3.5,1.1-.6.2-2.9.9-2.2.7-1.3.4-3.5,1.1-.4.1-.5.2h-.2v-36c0-1.5.3-2.9.7-4.3.1-.3.2-.6.4-.9.8-1.8,2-3.4,3.5-4.7.4-.3.8-.7,1.3-1,.7-.5,1.4-.8,2.2-1.2.2-.1.5-.2.7-.3l.2-.1,2.1-.7.6-.2,3.5-1.1,1.1-.4,5.1-1.7.8-.3,3.5-1.1.9-.3,5.1-1.7,5.1-1.7,5.1-1.7,5.1-1.7,3.7-1.2c.5-.1.9-.3,1.4-.5,1.9-.7,3.6-1.7,5.1-2.8,2-1.4,3.7-3.1,5.1-5,3.1-4,4.9-9.1,4.9-14.4v-82.2c0-5.4-1.7-10.4-4.9-14.5-1.4-1.8-3-3.4-4.9-4.8q-.1-.1-.2-.1c-1.6-1.2-3.3-2.1-5.1-2.8-1.7-.7-3.4-1.1-5.1-1.4-1.7-.3-3.4-.3-5.1-.2-1.7.1-3.4.4-5.1.9-.2.1-.5.1-.7.2l-4.4,1.4-5.1,1.6-5.1,1.7-5.5,1.5-5.1,1.7-5.1,1.6-5.1,1.7-5.1,1.6-5.1,1.6-5.1,1.7-5.1,1.6-5.1,1.6-5.1,1.7-5.1,1.6-5.1,1.7-5.1,1.6-5.1,1.7-5.5,1.6-5.1,1.7-3.7,1.2c-.5.2-1,.3-1.5.5-1.8.7-3.6,1.7-5.1,2.8-2,1.4-3.7,3.1-5.1,5-3.1,4.1-4.9,9.1-4.9,14.5v32.2c0,3.8.8,7,2,9.7.1.3.2.5.4.8-.1.1-.3.1-.4.2-.8.4-1.5.7-2.2,1.2-.4.2-.8.5-1.3.7-1.2.7-2.4,1.5-3.5,2.3-.1.1-.3.2-.4.3-1.1.8-2.1,1.6-3.1,2.4-.7.6-1.4,1.2-2,1.9-.5.5-1,.9-1.5,1.4-1.2,1.3-2.4,2.6-3.5,4-.1.1-.1.2-.2.3-.7.9-1.3,1.7-1.9,2.6-.5-.7-1-1.5-1.4-2.2-.7-1.1-1.3-2.2-1.8-3.4-.6-1.2-1.1-2.5-1.6-3.7-2.3-5.8-3.5-12-3.5-18.3v-32.5c0-7.8,1.8-15.4,5.1-22,1.4-2.9,3.1-5.7,5.1-8.2,1.5-2,3.3-3.9,5.1-5.7,1.6-1.5,3.3-3,5.1-4.3,1.6-1.2,3.3-2.3,5.1-3.3,1.6-.9,3.3-1.7,5.1-2.5,1.3-.5,2.5-1,3.8-1.4l1.3-.4,5.1-1.6,5.1-1.7,5.1-1.6,5.1-1.7,5.1-1.6,5.1-1.7,5.1-1.6,5.1-1.7,5.6-1.6,5.1-1.7,5.1-1.6,5.1-1.6,5.1-1.7,5.1-1.6,5.1-1.7,5.1-1.6,5.1-1.7,5.1-1.6,5.1-1.7,1.7-.5c1.1-.4,2.3-.7,3.5-1,1.7-.4,3.4-.8,5.1-1,1.7-.2,3.4-.4,5.1-.4,1.7-.1,3.4,0,5.1.1,1.7.1,3.4.3,5.1.6,1.7.3,3.4.7,5.1,1.2,1.7.5,3.5,1.1,5.1,1.8,1.7.7,3.5,1.6,5.1,2.5,1.8,1,3.5,2.1,5.1,3.3h.1c1.8,1.3,3.5,2.7,5.1,4.3,1.9,1.7,3.6,3.6,5.1,5.6,2,2.6,3.7,5.3,5.1,8.2,3.6,6.9,5.4,14.4,5.4,22.3Z"/>
    <path class="cls-1" d="m204.99,142.93v27.1l-.7.2-1.9.6-3.2,1-.2.1-3.5,1.1-1.4.5-2.1.7-.5.1h0l-2.1.7-1.8.6-1.7.5-3.4,1.1h-.1l-3.5,1.1-1.6.5-1.9.6-3.2,1-.2.1-3.5,1.1-1.4.5-2.1.7-.5.1-2.6.8-.4.1-3.5,1.1-1.2.4-2.3.7-2.8.9-.6.2-3.5,1.1-1,.3-1.9.6-.6.2-2.7.9-.8.3-2.9.9c-.2.1-.4.1-.6.2-.3.1-.6.2-.8.3-.9.4-1.8.8-2.7,1.3-.8.4-1.7.9-2.5,1.5-.3.2-.7.5-1,.8-1.3,1-2.4,2.1-3.5,3.4-.2.2-.4.5-.6.8-1.1,1.5-2.1,3.1-2.9,4.9-1.3,3-2,6.2-2,9.6v79.6c0,2.5.7,4.9,2,6.9.8,1.3,2,2.5,3.3,3.5q.1.1.2.1c1.1.8,2.2,1.4,3.5,1.7,1.1.4,2.3.6,3.5.6,1.1,0,2.3-.1,3.5-.4.3-.1.6-.2.9-.3l2.5-.8,3.5-1.1,3.5-1.1,3.5-1.1,3.5-1.1,1.6-.5c.6-.2,1.2-.5,1.8-.8,1.3-.5,2.4-1.2,3.5-2.1,1.3-1,2.5-2.2,3.5-3.6,2-2.8,3.1-6.3,3.1-9.9v-56.5l.3-.1,3.5-1.1.2-.1,3.2-1,1.9-.6,1.6-.5,3.5-1.1h.1l3.4-1.1,1.7-.5,1.8-.6,3.3-1.1.2-.1,1.1-.4v64.8c0,2.4-.2,4.9-.6,7.2-.2.9-.3,1.7-.5,2.6-.8,3.4-1.9,6.6-3.5,9.6-1,2-2.2,3.9-3.5,5.8-1.1,1.5-2.2,2.9-3.5,4.3-1.1,1.2-2.3,2.3-3.5,3.3-1.1,1-2.3,1.8-3.5,2.7-1.1.8-2.3,1.5-3.5,2.2-1.1.6-2.3,1.2-3.5,1.7-.1,0-.2.1-.3.2-1,.4-2.1.8-3.1,1.2-.3.1-.6.2-.9.3l-2.6.8-7,2.2-3.5,1.1-3.5,1.1-1.6.5c-.6.2-1.2.4-1.8.5-1.2.3-2.3.6-3.5.8-1.2.2-2.3.4-3.5.4-1.1.1-2.1.1-3.1.1h-.3c-1.2,0-2.3-.1-3.5-.2-1.2-.1-2.3-.3-3.5-.5s-2.3-.5-3.5-.9c-.7-.2-1.3-.4-2-.6-.5-.2-1-.4-1.5-.6-1.2-.5-2.3-1-3.5-1.6s-2.4-1.3-3.5-2.1c-.5-.3-1-.7-1.5-1-.7-.5-1.3-1-2-1.6-1.2-1-2.4-2.1-3.5-3.3-1.3-1.3-2.5-2.8-3.5-4.3-1.4-1.9-2.5-3.9-3.5-6-2.3-5-3.5-10.5-3.5-16.2v-79.6c0-6.4,1.2-12.6,3.5-18.3.5-1.3,1-2.5,1.6-3.7s1.2-2.3,1.8-3.4c.4-.8.9-1.5,1.4-2.2.6-.9,1.2-1.8,1.9-2.6,0-.1.1-.2.2-.2,1.1-1.4,2.2-2.7,3.5-4,.5-.5.9-1,1.5-1.4.7-.7,1.3-1.2,2-1.8,1-.8,2-1.7,3.1-2.4.1-.1.3-.2.4-.3,1.1-.8,2.3-1.6,3.5-2.2.4-.2.8-.5,1.3-.7.7-.4,1.5-.8,2.2-1.2.1-.1.2-.1.4-.2.8-.4,1.7-.8,2.5-1.1.2-.1.4-.2.6-.2,1-.4,2.1-.8,3.1-1.1l.3-.1,1-.3,2.5-.8,2.7-.9.8-.3,3.5-1.1.8-.3,2.7-.8.6-.2,1.9-.6,1-.3,3.5-1.1.6-.2,2.8-.9,2.3-.7,1.2-.4,3.5-1.1.4-.1,2.6-.8.5-.1,2.1-.7,1.4-.4,3.5-1.1.2-.1,3.2-1,1.9-.6,1.6-.5,3.5-1.1h.1l3.4-1.1,1.7-.5,1.8-.6,2.1-.7h0l.5-.1,2.1-.7,1.4-.5,3.5-1.1.2-.1,3.2-1,1.9-.6,1-.4Z"/>
    <g>
        <path class="cls-1" d="m431.93,82.32c20.61,0,37.62,6.76,51.05,20.28,13.42,13.52,20.14,30.68,20.14,51.48s-6.71,37.96-20.14,51.48c-13.43,13.52-30.44,20.28-51.05,20.28h-38.57v55.02h-45.94V82.32h84.52Zm-7.09,106.07c9.26,0,16.88-3.21,22.83-9.64,5.96-6.43,8.93-14.65,8.93-24.67s-2.98-18.24-8.93-24.67c-5.96-6.43-13.57-9.64-22.83-9.64h-31.48v68.63h31.48Z"/>
        <path class="cls-1" d="m578.55,284.53c-19.85,0-35.55-6.71-47.08-20.14-11.53-13.42-17.3-30.72-17.3-51.9s5.96-38,17.87-51.62,27.6-20.42,47.08-20.42c9.64,0,18.24,2.08,25.81,6.24,7.56,4.16,13.23,9.83,17.02,17.02v-19.57h43.11v136.7h-43.11v-19.29c-3.78,6.81-9.6,12.34-17.44,16.59-7.85,4.25-16.5,6.38-25.95,6.38Zm12.48-36.02c10.4,0,18.44-3.4,24.11-10.21,5.67-6.81,8.51-15.41,8.51-25.81s-2.84-18.72-8.51-25.52c-5.67-6.81-13.71-10.21-24.11-10.21-9.83,0-17.73,3.31-23.68,9.93-5.96,6.62-8.93,15.22-8.93,25.81s2.98,19.24,8.93,25.95c5.96,6.71,13.85,10.07,23.68,10.07Z"/>
        <path class="cls-1" d="m793.53,144.15h43.39v132.45c0,21.17-6.52,37.62-19.57,49.35-12.29,10.59-29.03,15.88-50.2,15.88s-38.95-4.73-50.48-14.18c-11.16-9.46-16.83-21.46-17.02-36.02h43.68c.94,12.29,8.88,18.43,23.82,18.43,17.58,0,26.38-10.21,26.38-30.63v-21.27c-7.94,15.13-22.41,22.69-43.39,22.69-16.83,0-29.45-5.11-37.86-15.32-8.42-10.21-12.62-24.2-12.62-41.97v-79.41h43.39v72.89c0,19.67,8.03,29.5,24.11,29.5,8.51,0,15.03-3.07,19.57-9.22,4.54-6.14,6.81-14.61,6.81-25.38v-67.78Z"/>
        <path class="cls-1" d="m874.07,280.85V82.32h121.39v38.57h-75.44v53.6h75.44v37.72h-75.44v68.63h-45.95Z"/>
        <path class="cls-1" d="m1147.05,264.68c-13.71,13.61-32.1,20.42-55.16,20.42s-41.5-6.81-55.3-20.42c-13.8-13.61-20.7-31.01-20.7-52.18s6.9-38.52,20.7-52.04c13.8-13.52,32.23-20.28,55.3-20.28s41.45,6.76,55.16,20.28c13.71,13.52,20.56,30.87,20.56,52.04s-6.86,38.57-20.56,52.18Zm-55.16-16.45c10.02,0,17.96-3.31,23.82-9.93,5.86-6.62,8.79-15.22,8.79-25.81s-2.93-19.19-8.79-25.81c-5.86-6.62-13.8-9.93-23.82-9.93s-18.2,3.31-23.97,9.93c-5.77,6.62-8.65,15.22-8.65,25.81s2.88,19.19,8.65,25.81c5.77,6.62,13.76,9.93,23.97,9.93Z"/>
        <path class="cls-1" d="m1192.56,280.85v-136.7h43.39v19.85c8.13-15.69,22.88-23.54,44.24-23.54,33.28,0,49.92,18.62,49.92,55.87v84.52h-43.68v-70.34c0-11.72-1.84-20.23-5.53-25.52-3.69-5.29-9.88-7.94-18.58-7.94-17.58,0-26.38,10.78-26.38,32.33v71.47h-43.39Z"/>
        <path class="cls-1" d="m1433.92,247.1c6.05,0,11.06-.28,15.03-.85v34.6c-8.32,1.51-17.96,2.27-28.93,2.27-4.92,0-9.27-.28-13.05-.85-3.78-.57-8.04-1.84-12.76-3.83-4.73-1.98-8.61-4.68-11.63-8.08-3.03-3.4-5.63-8.32-7.8-14.75-2.18-6.43-3.26-13.99-3.26-22.69v-54.45h-21.55v-34.32h21.55v-40.56h43.39v40.56h30.91v34.32h-30.91v45.38c0,9.27,1.6,15.46,4.82,18.58,3.21,3.12,7.94,4.68,14.18,4.68Z"/>
        <path class="cls-1" d="m1608.34,205.41c0,5.67-.38,12.01-1.13,19h-100.97c.38,8.89,3.4,15.79,9.08,20.7,5.67,4.92,13.33,7.37,22.97,7.37,13.23,0,21.74-4.25,25.53-12.76h42.54c-2.08,13.43-9.41,24.35-21.98,32.76-12.58,8.41-27.94,12.62-46.09,12.62-23.26,0-41.6-6.43-55.02-19.29-13.43-12.86-20.14-30.63-20.14-53.32s6.71-39.94,20.14-52.89c13.42-12.95,31.29-19.43,53.6-19.43s38.38,6.05,51.62,18.15c13.23,12.1,19.85,27.79,19.85,47.08Zm-102.1-7.94h59.28c-.19-9.08-2.74-16.07-7.66-20.99-4.92-4.91-12.01-7.37-21.27-7.37s-16.59,2.6-21.98,7.8c-5.39,5.2-8.18,12.05-8.37,20.56Z"/>
    </g>
</svg>
